<?xml version="1.0" encoding="UTF-8" standalone="no" ?>
<!DOCTYPE svg PUBLIC "-//W3C//DTD SVG 1.1//EN" "http://www.w3.org/Graphics/SVG/1.1/DTD/svg11.dtd">
<svg xmlns="http://www.w3.org/2000/svg" xmlns:xlink="http://www.w3.org/1999/xlink" version="1.1" width="1400" height="2100" viewBox="0 0 1400 2100" xml:space="preserve">
<desc>Created with Fabric.js 5.2.4</desc>
<defs>
</defs>
<rect x="0" y="0" width="100%" height="100%" fill="transparent"></rect>
<g transform="matrix(1 0 0 1 700 1050)" id="7bee74f1-84a9-4595-a1e6-272f4efdb292"  >
<rect style="stroke: none; stroke-width: 1; stroke-dasharray: none; stroke-linecap: butt; stroke-dashoffset: 0; stroke-linejoin: miter; stroke-miterlimit: 4; fill: rgb(255,255,255); fill-rule: nonzero; opacity: 1; visibility: hidden;" vector-effect="non-scaling-stroke"  x="-700" y="-1050" rx="0" ry="0" width="1400" height="2100" />
</g>
<g transform="matrix(Infinity NaN NaN Infinity 0 0)" id="1eaf757c-ee86-4844-8639-7219c9e050a3"  >
</g>
<g transform="matrix(3.09 0 0 3.09 739.73 1024.94)"  >
<g style="" vector-effect="non-scaling-stroke"   >
		<g transform="matrix(1.33 0 0 -1.33 -34.59 0)" clip-path="url(#CLIPPATH_15)"  >
<clipPath id="CLIPPATH_15" >
	<path transform="matrix(1 0 0 1 26.23 0.12) translate(-108, -36)" id="cp0" d="M 0 72 L 216 72 L 216 0 L 0 0 Z" stroke-linecap="round" />
</clipPath>
<path style="stroke: none; stroke-width: 1; stroke-dasharray: none; stroke-linecap: butt; stroke-dashoffset: 0; stroke-linejoin: miter; stroke-miterlimit: 4; fill: rgb(255,255,255); fill-rule: nonzero; opacity: 1;" vector-effect="non-scaling-stroke"  transform=" translate(20.13, -18.11)" d="M 0 0 L 4.701 19.759 L -19.289 19.759 L -20.835 13.255 L -14.319 13.255 L -17.833 -1.514 L -27.602 -1.514 L -18.274 37.718 L 1.257 37.718 L 5.674 44.225 L -27.303 44.225 L -27.637 44.225 L -30.618 44.225 C -32.696 44.225 -34.506 42.798 -34.991 40.776 L -35.685 37.883 C -35.706 37.808 -35.741 37.739 -35.76 37.663 L -43.224 6.273 L -43.239 6.273 L -45.866 -4.753 C -46.261 -6.415 -45.001 -8.011 -43.291 -8.011 L -40.056 -8.011 L -31.259 -8.011 L -8.783 -8.011 L -8.398 -8.011 L -5.469 -8.011 C -3.389 -8.011 -1.58 -6.585 -1.095 -4.563 L -0.372 -1.549 C -0.37 -1.538 -0.364 -1.527 -0.361 -1.518 L -0.001 -0.002 Z" stroke-linecap="round" />
</g>
		<g transform="matrix(1.33 0 0 -1.33 -108.69 -18.19)" clip-path="url(#CLIPPATH_16)"  >
<clipPath id="CLIPPATH_16" >
	<path transform="matrix(1 0 0 1 81.8 -13.52) translate(-108, -36)" id="cp0" d="M 0 72 L 216 72 L 216 0 L 0 0 Z" stroke-linecap="round" />
</clipPath>
<path style="stroke: none; stroke-width: 1; stroke-dasharray: none; stroke-linecap: butt; stroke-dashoffset: 0; stroke-linejoin: miter; stroke-miterlimit: 4; fill: rgb(255,255,255); fill-rule: nonzero; opacity: 1;" vector-effect="non-scaling-stroke"  transform=" translate(12.07, 1.2)" d="M 0 0 L 0.725 3.057 C 1.805 7.592 -0.999 11.271 -5.531 11.271 L -19.166 11.271 L -22.131 -1.205 L -13.787 -1.205 L -11.56 8.164 L -9.792 8.164 C -7.92 8.164 -6.764 6.646 -7.212 4.774 L -8.756 -1.716 C -9.201 -3.588 -11.077 -5.105 -12.95 -5.105 L -17.891 -5.105 C -20.748 -5.105 -23.611 -7.419 -24.29 -10.272 L -25.1 -13.68 L -16.755 -13.68 L -15.455 -8.211 L -12.983 -8.211 L -11.278 -13.652 L -2.932 -13.652 L -5.111 -6.718 C -2.639 -5.233 -0.665 -2.783 0 0" stroke-linecap="round" />
</g>
		<g transform="matrix(1.33 0 0 -1.33 -75.35 -18.19)" clip-path="url(#CLIPPATH_17)"  >
<clipPath id="CLIPPATH_17" >
	<path transform="matrix(1 0 0 1 56.8 -13.52) translate(-108, -36)" id="cp0" d="M 0 72 L 216 72 L 216 0 L 0 0 Z" stroke-linecap="round" />
</clipPath>
<path style="stroke: none; stroke-width: 1; stroke-dasharray: none; stroke-linecap: butt; stroke-dashoffset: 0; stroke-linejoin: miter; stroke-miterlimit: 4; fill: rgb(255,255,255); fill-rule: nonzero; opacity: 1;" vector-effect="non-scaling-stroke"  transform=" translate(0.35, -9.37)" d="M 0 0 L -5.155 0 L -0.699 18.738 L 4.457 18.738 Z M 8.317 -0.12 L 12.83 18.859 C 13.221 20.506 12.203 21.844 10.555 21.844 L -5.32 21.844 C -6.968 21.844 -8.622 20.507 -9.015 18.859 L -13.527 -0.12 C -13.919 -1.768 -12.9 -3.105 -11.255 -3.105 L 4.623 -3.105 C 6.272 -3.105 7.924 -1.768 8.317 -0.12" stroke-linecap="round" />
</g>
		<g transform="matrix(1.33 0 0 -1.33 21.31 -18.21)" clip-path="url(#CLIPPATH_18)"  >
<clipPath id="CLIPPATH_18" >
	<path transform="matrix(1 0 0 1 -15.7 -13.54) translate(-108, -36)" id="cp0" d="M 0 72 L 216 72 L 216 0 L 0 0 Z" stroke-linecap="round" />
</clipPath>
<path style="stroke: none; stroke-width: 1; stroke-dasharray: none; stroke-linecap: butt; stroke-dashoffset: 0; stroke-linejoin: miter; stroke-miterlimit: 4; fill: rgb(255,255,255); fill-rule: nonzero; opacity: 1;" vector-effect="non-scaling-stroke"  transform=" translate(-7.62, -12.46)" d="M 0 0 L 7.85 0 C 11.716 0 15.594 3.133 16.513 6.999 L 20.772 24.916 L 12.43 24.916 L 7.855 5.685 C 7.517 4.26 6.088 3.106 4.663 3.106 C 3.243 3.106 2.361 4.261 2.699 5.685 L 7.272 24.916 L -1.071 24.916 L -5.331 6.999 C -6.251 3.134 -3.863 0 0 0" stroke-linecap="round" />
</g>
		<g transform="matrix(1.33 0 0 -1.33 50.62 -18.19)" clip-path="url(#CLIPPATH_19)"  >
<clipPath id="CLIPPATH_19" >
	<path transform="matrix(1 0 0 1 -37.68 -13.52) translate(-108, -36)" id="cp0" d="M 0 72 L 216 72 L 216 0 L 0 0 Z" stroke-linecap="round" />
</clipPath>
<path style="stroke: none; stroke-width: 1; stroke-dasharray: none; stroke-linecap: butt; stroke-dashoffset: 0; stroke-linejoin: miter; stroke-miterlimit: 4; fill: rgb(255,255,255); fill-rule: nonzero; opacity: 1;" vector-effect="non-scaling-stroke"  transform=" translate(-9.05, -12.47)" d="M 0 0 L 14.596 0 L 15.335 3.106 L 6.008 3.106 L 7.866 10.921 L 13.815 10.921 L 15.455 14.027 L 8.605 14.027 L 10.463 21.844 L 19.791 21.844 L 19.791 21.841 L 20.527 24.947 L 2.854 24.947 L -2.348 3.078 C -2.75 1.378 -1.7 0 0 0" stroke-linecap="round" />
</g>
		<g transform="matrix(1.33 0 0 -1.33 9.48 18.22)" clip-path="url(#CLIPPATH_20)"  >
<clipPath id="CLIPPATH_20" >
	<path transform="matrix(1 0 0 1 -6.82 13.78) translate(-108, -36)" id="cp0" d="M 0 72 L 216 72 L 216 0 L 0 0 Z" stroke-linecap="round" />
</clipPath>
<path style="stroke: none; stroke-width: 1; stroke-dasharray: none; stroke-linecap: butt; stroke-dashoffset: 0; stroke-linejoin: miter; stroke-miterlimit: 4; fill: rgb(255,255,255); fill-rule: nonzero; opacity: 1;" vector-effect="non-scaling-stroke"  transform=" translate(-3.04, -9.35)" d="M 0 0 L 1.856 7.803 L 7.793 7.803 L 9.431 10.903 L 2.593 10.903 L 4.45 18.707 L 13.759 18.707 L 13.759 18.703 L 14.498 21.806 L -3.147 21.806 L -8.339 -0.029 C -8.743 -1.726 -7.695 -3.103 -5.998 -3.103 L 8.576 -3.103 L 9.313 0 Z" stroke-linecap="round" />
</g>
		<g transform="matrix(1.33 0 0 -1.33 36.94 18.22)" clip-path="url(#CLIPPATH_21)"  >
<clipPath id="CLIPPATH_21" >
	<path transform="matrix(1 0 0 1 -27.42 13.78) translate(-108, -36)" id="cp0" d="M 0 72 L 216 72 L 216 0 L 0 0 Z" stroke-linecap="round" />
</clipPath>
<path style="stroke: none; stroke-width: 1; stroke-dasharray: none; stroke-linecap: butt; stroke-dashoffset: 0; stroke-linejoin: miter; stroke-miterlimit: 4; fill: rgb(255,255,255); fill-rule: nonzero; opacity: 1;" vector-effect="non-scaling-stroke"  transform=" translate(7.92, 12.45)" d="M 0 0 L -3.993 0 C -6.601 0 -9.296 -1.747 -10.573 -4.26 L -15.513 -13.989 L -7.184 -13.989 L -3.688 -7.11 L -3.342 -17.886 L -13.52 -17.902 C -15.872 -17.908 -18.306 -19.486 -19.456 -21.758 L -21.058 -24.908 L -12.728 -24.908 L -11.152 -21.807 L -3.214 -21.807 L -3.112 -24.908 L 5.218 -24.908 L 4.55 -4.26 C 4.47 -1.747 2.604 0 0 0" stroke-linecap="round" />
</g>
		<g transform="matrix(1.33 0 0 -1.33 74.1 18.22)" clip-path="url(#CLIPPATH_22)"  >
<clipPath id="CLIPPATH_22" >
	<path transform="matrix(1 0 0 1 -55.29 13.78) translate(-108, -36)" id="cp0" d="M 0 72 L 216 72 L 216 0 L 0 0 Z" stroke-linecap="round" />
</clipPath>
<path style="stroke: none; stroke-width: 1; stroke-dasharray: none; stroke-linecap: butt; stroke-dashoffset: 0; stroke-linejoin: miter; stroke-miterlimit: 4; fill: rgb(255,255,255); fill-rule: nonzero; opacity: 1;" vector-effect="non-scaling-stroke"  transform=" translate(6.53, 12.45)" d="M 0 0 L -13.611 0 L -16.575 -12.454 L -8.242 -12.454 L -6.021 -3.102 L -4.257 -3.102 C -2.387 -3.102 -1.231 -4.616 -1.678 -6.485 L -3.219 -12.966 C -3.663 -14.835 -5.537 -16.348 -7.405 -16.348 L -12.341 -16.348 C -15.19 -16.348 -18.051 -18.659 -18.729 -21.511 L -19.536 -24.909 L -11.207 -24.909 L -9.905 -19.45 L -7.44 -19.45 L -5.736 -24.884 L 2.596 -24.884 L 0.419 -17.96 C 2.889 -16.479 4.858 -14.03 5.52 -11.251 L 6.245 -8.2 C 7.324 -3.673 4.525 0 0 0" stroke-linecap="round" />
</g>
		<g transform="matrix(1.33 0 0 -1.33 106.51 18.23)" clip-path="url(#CLIPPATH_23)"  >
<clipPath id="CLIPPATH_23" >
	<path transform="matrix(1 0 0 1 -79.6 13.8) translate(-108, -36)" id="cp0" d="M 0 72 L 216 72 L 216 0 L 0 0 Z" stroke-linecap="round" />
</clipPath>
<path style="stroke: none; stroke-width: 1; stroke-dasharray: none; stroke-linecap: butt; stroke-dashoffset: 0; stroke-linejoin: miter; stroke-miterlimit: 4; fill: rgb(255,255,255); fill-rule: nonzero; opacity: 1;" vector-effect="non-scaling-stroke"  transform=" translate(7.77, 3.67)" d="M 0 0 L -9.703 -2.781 C -9.938 -2.848 -10.121 -2.684 -10.065 -2.458 L -8.134 5.669 L 1.179 5.669 L 1.917 8.771 L -12.749 8.771 C -14.395 8.771 -16.044 7.437 -16.433 5.794 L -18.851 -4.376 C -19.349 -6.465 -17.68 -7.959 -15.539 -7.343 L -5.834 -4.562 C -5.602 -4.494 -5.418 -4.657 -5.474 -4.885 L -7.406 -13.012 L -16.719 -13.012 L -17.457 -16.113 L -2.787 -16.113 C -1.145 -16.113 0.505 -14.781 0.894 -13.138 L 3.313 -2.968 C 3.81 -0.88 2.143 0.615 0 0" stroke-linecap="round" />
</g>
		<g transform="matrix(1.33 0 0 -1.33 -102.11 2.4)" clip-path="url(#CLIPPATH_24)"  >
<clipPath id="CLIPPATH_24" >
	<path transform="matrix(1 0 0 1 76.87 1.92) translate(-108, -36)" id="cp0" d="M 0 72 L 216 72 L 216 0 L 0 0 Z" stroke-linecap="round" />
</clipPath>
<path style="stroke: none; stroke-width: 1; stroke-dasharray: none; stroke-linecap: butt; stroke-dashoffset: 0; stroke-linejoin: miter; stroke-miterlimit: 4; fill: rgb(255,255,255); fill-rule: nonzero; opacity: 1;" vector-effect="non-scaling-stroke"  transform=" translate(-14.75, -0.01)" d="M 0 0 L 29.099 0 C 29.236 0 29.373 0 29.495 0.016 Z" stroke-linecap="round" />
</g>
		<g transform="matrix(1.33 0 0 -1.33 -102.18 5.96)" clip-path="url(#CLIPPATH_25)"  >
<clipPath id="CLIPPATH_25" >
	<path transform="matrix(1 0 0 1 0 0) translate(-31.08, -31.41)" id="cp1" clip-path="url(#undefined)" d="M 16.3838 31.4064 L 45.7717 31.4064 L 45.7717 31.4217 L 16.3838 31.4217 Z" stroke-linecap="round" />
</clipPath>
<path style="stroke: none; stroke-width: 1; stroke-dasharray: none; stroke-linecap: butt; stroke-dashoffset: 0; stroke-linejoin: miter; stroke-miterlimit: 4; fill: rgb(255,255,255); fill-rule: nonzero; opacity: 0.440002;" vector-effect="non-scaling-stroke"  transform=" translate(-14.69, -0.01)" d="M 0 0 L 29.099 0 C 29.19 0 29.296 0 29.388 0.016 Z" stroke-linecap="round" />
</g>
		<g transform="matrix(1.33 0 0 -1.33 0 0)" clip-path="url(#CLIPPATH_26)"  >
<clipPath id="CLIPPATH_26" >
	<path transform="matrix(1 0 0 1 0.29 0.12) translate(-108, -36)" id="cp0" d="M 0 72 L 216 72 L 216 0 L 0 0 Z" stroke-linecap="round" />
</clipPath>
<path style="stroke: none; stroke-width: 1; stroke-dasharray: none; stroke-linecap: butt; stroke-dashoffset: 0; stroke-linejoin: miter; stroke-miterlimit: 4; fill: rgb(255,255,255); fill-rule: nonzero; opacity: 1;" vector-effect="non-scaling-stroke"  transform=" translate(96.84, -0.93)" d="M 0 0 L -2.785 -12.738 L -5.205 -22.904 C -5.905 -25.902 -8.721 -28.154 -11.765 -28.154 L -145.54 -28.154 C -147.229 -28.154 -148.796 -27.531 -149.816 -26.435 C -151.14 -25.02 -151.658 -23.071 -151.216 -21.23 L -147.944 -7.472 L -147.792 -6.879 C -147.442 -5.418 -147.777 -3.911 -148.705 -2.724 C -149.633 -1.552 -151.034 -0.867 -152.54 -0.867 L -153.012 -0.867 L -158.673 -0.867 C -158.795 -0.883 -158.932 -0.883 -159.069 -0.883 L -188.168 -0.883 L -188.198 -0.883 C -189.918 -0.867 -191.501 -0.091 -192.551 1.249 C -193.616 2.618 -193.981 4.353 -193.571 6.027 L -188.64 25.781 C -188.016 28.277 -185.809 29.997 -183.252 29.997 L -157.104 29.997 C -157.099 30.008 -157.088 30.016 -157.083 30.027 L -148.127 30.027 L -46.221 30.027 C -45.535 30.027 -44.912 29.723 -44.485 29.19 C -44.06 28.658 -43.907 27.973 -44.074 27.318 L -48.488 8.721 C -48.838 7.26 -48.503 5.753 -47.575 4.566 C -46.646 3.394 -45.246 2.725 -43.755 2.725 L -2.146 2.694 C -1.477 2.694 -0.853 2.39 -0.427 1.857 C -0.016 1.34 0.151 0.67 0 0 M 1.644 3.531 C 0.715 4.688 -0.67 5.357 -2.146 5.357 L -43.755 5.388 C -44.425 5.388 -45.063 5.692 -45.49 6.225 C -45.9 6.758 -46.053 7.442 -45.9 8.097 L -41.473 26.694 C -41.122 28.155 -41.457 29.677 -42.4 30.849 C -43.329 32.021 -44.714 32.706 -46.221 32.706 L -182.39 32.706 C -182.419 32.69 -182.448 32.674 -182.479 32.66 L -183.252 32.66 C -185.611 32.66 -187.772 31.671 -189.279 30.027 C -190.207 29.038 -190.877 27.806 -191.227 26.436 L -196.143 6.667 C -196.767 4.186 -196.219 1.629 -194.651 -0.38 C -194.225 -0.928 -193.723 -1.415 -193.19 -1.826 L -193.19 -1.841 C -191.775 -2.937 -190.024 -3.546 -188.183 -3.546 L -188.168 -3.546 L -158.78 -3.53 L -152.54 -3.53 C -151.855 -3.53 -151.216 -3.851 -150.805 -4.383 C -150.425 -4.854 -150.272 -5.433 -150.333 -5.98 L -153.803 -20.606 C -154.458 -23.33 -153.697 -26.191 -151.764 -28.246 C -150.242 -29.89 -147.975 -30.818 -145.54 -30.818 L -80.569 -30.849 L -11.765 -30.818 C -7.519 -30.818 -3.577 -27.683 -2.603 -23.513 L -0.183 -13.331 L 2.602 -0.562 C 2.922 0.883 2.571 2.375 1.644 3.531" stroke-linecap="round" />
</g>
</g>
</g>
</svg>